<svg
    width="75"
    height="75"
    version="1.1"
    viewBox="0 0 24 24"
    xmlns="http://www.w3.org/2000/svg"
    class="img-fluid card-svg"
    
>
    <defs>
        <linearGradient
            id="logo_gradient"
            x2="1"
            gradientTransform="matrix(0 -20.614 20.614 0 12 20.614)"
            gradientUnits="userSpaceOnUse"
        >
            <stop
                stop-color="#0071bc"
                offset="0"
            />
            <stop
                stop-color="#41bcec"
                offset=".7691"
            />
            <stop
                stop-color="#41bcec"
                offset="1"
            />
        </linearGradient>
        <clipPath id="clipPath2-1">
            <path
                id="path2-5"
                transform="translate(-289.49 -275.38)"
                d="m0 504h576v-504h-576z"
            />
        </clipPath>
    </defs>
    <path
        d="m12.156 21.2c-0.049 0.0343-0.1061 0.0514-0.1633 0.0514s-0.1145-0.0172-0.1635-0.0516c-0.1197-0.084-2.1112-1.4994-3.3109-3.3611-0.36827 0.6604-0.61229 1.3633-0.61229 2.0675 0 2.2608 1.8328 4.0935 4.0936 4.0935 2.2608 0 4.0936-1.8327 4.0936-4.0935 0-0.7034-0.2455-1.4063-0.616-2.0672-1.2038 1.8611-3.2012 3.2771-3.3212 3.361"
        fill="currentColor"
    />
    <path
        d="m9.3513 2.4742c-2.8569 0.52582-5.4865 1.8972-7.584 3.9954-0.12919 0.12896-0.20027 0.30052-0.20027 0.48322 0 0.18235 0.0711 0.35368 0.20004 0.48253 0.12907 0.12919 0.30075 0.20027 0.48321 0.20027 0.18293 0 0.35426-0.07085 0.48219-0.19946 1.838-1.8387 4.1266-3.0624 6.6167-3.5714 0.94783 1.2551 2.2025 2.2559 2.6465 2.5906 0.44463-0.33462 1.7031-1.3362 2.6544-2.5909 2.4903 0.50871 4.779 1.7325 6.6175 3.5713 0.1285 0.12861 0.29994 0.19935 0.48264 0.19935 0.18293 0 0.35438-0.07062 0.48333-0.19923 0.26596-0.2663 0.26607-0.69979 2.6e-4 -0.96655-2.0987-2.0993-4.7298-3.4708-7.5885-3.996-1.1797-1.4436-2.6498-2.4734-2.6498-2.4734s-1.4679 1.0289-2.6441 2.4742m-0.0132 7.0951c-1.7271 0.45991-3.3114 1.3656-4.6092 2.6634-0.2663 0.26641-0.26641 0.69979-2.6e-4 0.96609 0.1293 0.12896 0.30098 0.20004 0.48345 0.20004 0.18224 0 0.35368-0.07108 0.48252-0.19992 1.0453-1.0458 2.305-1.7993 3.6802-2.2208 0.94472 1.239 2.1809 2.2247 2.6208 2.5564 0.44062-0.33164 1.6806-1.3182 2.6286-2.5569 1.3755 0.42132 2.6355 1.1751 3.6814 2.2213 0.12862 0.12884 0.29995 0.19981 0.48242 0.19981 0.18258 0 0.35414-0.07097 0.48321-0.19992 0.26618-0.26641 0.26618-0.69979-8e-5 -0.9662-1.2986-1.2989-2.8845-2.2051-4.6134-2.6647-1.1817-1.4517-2.6624-2.4888-2.6624-2.4888s-1.4788 1.0363-2.6573 2.49m-0.48207 7.7271c0.94174 1.5862 2.6127 2.9201 3.1396 3.3174 0.52754-0.39709 2.2027-1.7316 3.1485-3.3159-1.2114-1.7826-3.1487-3.1394-3.1487-3.1394s-1.9323 1.3541-3.1394 3.1379"
        fill="url(#logo_gradient)"
    />
</svg>